HIERARCHY
ROOT Hips
{
  OFFSET 5.80788e-005 67.184 3.4734
  CHANNELS 6 Xposition Yposition Zposition Zrotation Xrotation Yrotation
  JOINT Chest
  {
    OFFSET 0 8.7983 -4.7612
    CHANNELS 3 Zrotation Xrotation Yrotation
    JOINT Chest2
    {
      OFFSET 0 8.0291 0.4195
      CHANNELS 3 Zrotation Xrotation Yrotation
      JOINT Chest3
      {
        OFFSET 0 9.9351 -2.2114
        CHANNELS 3 Zrotation Xrotation Yrotation
        JOINT Neck
        {
          OFFSET 0 22.3885 -0.4656
          CHANNELS 3 Zrotation Xrotation Yrotation
          JOINT Head
          {
            OFFSET -0.0001 12.643 3.4389
            CHANNELS 3 Zrotation Xrotation Yrotation
            End Site
            {
              OFFSET 0.0001 17.6655 0.5274
            }
          }
        }
        JOINT LeftCollar
        {
          OFFSET 2.2603 21.606 7.4023
          CHANNELS 3 Zrotation Xrotation Yrotation
          JOINT LeftShoulder
          {
            OFFSET 13.5163 -1.1332 -5.0146
            CHANNELS 3 Zrotation Xrotation Yrotation
            JOINT LeftElbow
            {
              OFFSET -0.0995 -28.05 -0.2431
              CHANNELS 3 Zrotation Xrotation Yrotation
              JOINT LeftWrist
              {
                OFFSET 0.0679 -23.3996 -0.1402
                CHANNELS 3 Zrotation Xrotation Yrotation
                JOINT LeftFinger1
                {
                  OFFSET 0.7932 -9.069 2.5189
                  CHANNELS 3 Zrotation Xrotation Yrotation
                  JOINT LeftFinger11
                  {
                    OFFSET -0.8272 -3.3923 0.5977
                    CHANNELS 3 Zrotation Xrotation Yrotation
                    JOINT LeftFinger12
                    {
                      OFFSET -0.5649 -2.3158 0.4082
                      CHANNELS 3 Zrotation Xrotation Yrotation
                      End Site
                      {
                        OFFSET -0.4919 -1.6479 0.2673
                      }
                    }
                  }
                }
                JOINT LeftFinger2
                {
                  OFFSET 0.9159 -9.2044 0.2193
                  CHANNELS 3 Zrotation Xrotation Yrotation
                  JOINT LeftFinger21
                  {
                    OFFSET 0.0117 -4.1944 -0.0248
                    CHANNELS 3 Zrotation Xrotation Yrotation
                    JOINT LeftFinger22
                    {
                      OFFSET 0.0071 -2.3249 -0.0142
                      CHANNELS 3 Zrotation Xrotation Yrotation
                      End Site
                      {
                        OFFSET -0.1475 -2.0882 0.0028
                      }
                    }
                  }
                }
                JOINT LeftFinger3
                {
                  OFFSET 0.6113 -8.7231 -2.0637
                  CHANNELS 3 Zrotation Xrotation Yrotation
                  JOINT LeftFinger31
                  {
                    OFFSET -0.1927 -3.8059 -0.2383
                    CHANNELS 3 Zrotation Xrotation Yrotation
                    JOINT LeftFinger32
                    {
                      OFFSET -0.1091 -2.1688 -0.1362
                      CHANNELS 3 Zrotation Xrotation Yrotation
                      End Site
                      {
                        OFFSET -0.2358 -1.9176 -0.0906
                      }
                    }
                  }
                }
                JOINT LeftFinger4
                {
                  OFFSET -0.6151 -8.0947 -3.5641
                  CHANNELS 3 Zrotation Xrotation Yrotation
                  JOINT LeftFinger41
                  {
                    OFFSET -0.4882 -2.341 -0.6462
                    CHANNELS 3 Zrotation Xrotation Yrotation
                    JOINT LeftFinger42
                    {
                      OFFSET -0.3575 -1.7167 -0.4742
                      CHANNELS 3 Zrotation Xrotation Yrotation
                      End Site
                      {
                        OFFSET -0.4187 -1.5237 -0.3496
                      }
                    }
                  }
                }
                JOINT LeftFinger0
                {
                  OFFSET -1.42 -1.8761 1.4223
                  CHANNELS 3 Zrotation Xrotation Yrotation
                  JOINT LeftFinger01
                  {
                    OFFSET -1.1471 -3.4929 2.6334
                    CHANNELS 3 Zrotation Xrotation Yrotation
                    JOINT LeftFinger02
                    {
                      OFFSET -0.823 -2.3 1.6571
                      CHANNELS 3 Zrotation Xrotation Yrotation
                      End Site
                      {
                        OFFSET -0.5822 -1.6914 1.1582
                      }
                    }
                  }
                }
              }
            }
          }
        }
        JOINT RightCollar
        {
          OFFSET -2.2603 21.606 7.4023
          CHANNELS 3 Zrotation Xrotation Yrotation
          JOINT RightShoulder
          {
            OFFSET -13.5187 -1.1334 -5.0155
            CHANNELS 3 Zrotation Xrotation Yrotation
            JOINT RightElbow
            {
              OFFSET 0.0994 -28.0499 -0.2431
              CHANNELS 3 Zrotation Xrotation Yrotation
              JOINT RightWrist
              {
                OFFSET -0.0679 -23.3996 -0.1402
                CHANNELS 3 Zrotation Xrotation Yrotation
                JOINT RightFinger1
                {
                  OFFSET -0.7932 -9.0691 2.5189
                  CHANNELS 3 Zrotation Xrotation Yrotation
                  JOINT RightFinger11
                  {
                    OFFSET 0.8272 -3.3923 0.5977
                    CHANNELS 3 Zrotation Xrotation Yrotation
                    JOINT RightFinger12
                    {
                      OFFSET 0.565 -2.3158 0.4082
                      CHANNELS 3 Zrotation Xrotation Yrotation
                      End Site
                      {
                        OFFSET 0.4919 -1.6479 0.2673
                      }
                    }
                  }
                }
                JOINT RightFinger2
                {
                  OFFSET -0.916 -9.2044 0.2193
                  CHANNELS 3 Zrotation Xrotation Yrotation
                  JOINT RightFinger21
                  {
                    OFFSET -0.0117 -4.1944 -0.0248
                    CHANNELS 3 Zrotation Xrotation Yrotation
                    JOINT RightFinger22
                    {
                      OFFSET -0.0071 -2.3249 -0.0142
                      CHANNELS 3 Zrotation Xrotation Yrotation
                      End Site
                      {
                        OFFSET 0.1475 -2.0882 0.0028
                      }
                    }
                  }
                }
                JOINT RightFinger3
                {
                  OFFSET -0.6113 -8.7231 -2.0637
                  CHANNELS 3 Zrotation Xrotation Yrotation
                  JOINT RightFinger31
                  {
                    OFFSET 0.1927 -3.8059 -0.2383
                    CHANNELS 3 Zrotation Xrotation Yrotation
                    JOINT RightFinger32
                    {
                      OFFSET 0.1091 -2.1688 -0.1362
                      CHANNELS 3 Zrotation Xrotation Yrotation
                      End Site
                      {
                        OFFSET 0.2358 -1.9176 -0.0906
                      }
                    }
                  }
                }
                JOINT RightFinger4
                {
                  OFFSET 0.6151 -8.0947 -3.564
                  CHANNELS 3 Zrotation Xrotation Yrotation
                  JOINT RightFinger41
                  {
                    OFFSET 0.4882 -2.341 -0.6462
                    CHANNELS 3 Zrotation Xrotation Yrotation
                    JOINT RightFinger42
                    {
                      OFFSET 0.3574 -1.7166 -0.4742
                      CHANNELS 3 Zrotation Xrotation Yrotation
                      End Site
                      {
                        OFFSET 0.4187 -1.5237 -0.3496
                      }
                    }
                  }
                }
                JOINT RightFinger0
                {
                  OFFSET 1.4199 -1.8761 1.4221
                  CHANNELS 3 Zrotation Xrotation Yrotation
                  JOINT RightFinger01
                  {
                    OFFSET 1.1472 -3.4929 2.6336
                    CHANNELS 3 Zrotation Xrotation Yrotation
                    JOINT RightFinger02
                    {
                      OFFSET 0.8229 -2.3 1.6571
                      CHANNELS 3 Zrotation Xrotation Yrotation
                      End Site
                      {
                        OFFSET 0.5822 -1.6914 1.1582
                      }
                    }
                  }
                }
              }
            }
          }
        }
      }
    }
  }
  JOINT RightHip
  {
    OFFSET -9.412 3.9771 -0.7758
    CHANNELS 3 Zrotation Xrotation Yrotation
    JOINT RightKnee
    {
      OFFSET -0.7531 -40.938 0
      CHANNELS 3 Zrotation Xrotation Yrotation
      JOINT RightAnkle
      {
        OFFSET 0 -40.1986 0
        CHANNELS 3 Zrotation Xrotation Yrotation
        JOINT RightToe
        {
          OFFSET 0 -4.4182 9.239
          CHANNELS 3 Zrotation Xrotation Yrotation
          End Site
          {
            OFFSET 0 0 6.1981
          }
        }
      }
    }
  }
  JOINT LeftHip
  {
    OFFSET 9.4119 3.9773 -0.7758
    CHANNELS 3 Zrotation Xrotation Yrotation
    JOINT LeftKnee
    {
      OFFSET 0.7532 -40.9383 0
      CHANNELS 3 Zrotation Xrotation Yrotation
      JOINT LeftAnkle
      {
        OFFSET 0 -40.1986 0
        CHANNELS 3 Zrotation Xrotation Yrotation
        JOINT LeftToe
        {
          OFFSET 0 -4.4182 9.239
          CHANNELS 3 Zrotation Xrotation Yrotation
          End Site
          {
            OFFSET 0 0 6.1981
          }
        }
      }
    }
  }
}
MOTION
Frames:	4
Frame Time:	0.0333333
5.80788e-005 67.184 3.4734 0 0 -0 0 0 -0 0 0 -0 0 0 -0 0 0 -0 0 0 -0 0 0 -12.5014 88.1196 14.2451 10.6914 -0.00160068 -0.00239207 0.000740045 -8.4365e-005 7.00714e-005 -9.52055e-007 9.93923e-017 -1.98785e-016 -1.59028e-015 9.93923e-017 -5.96354e-016 -1.59028e-015 -9.93923e-017 -5.96354e-016 -1.59028e-015 9.93923e-017 -1.98785e-016 -1.59028e-015 -0.0128176 0.00232552 8.52707e-005 9.93923e-017 5.96354e-016 -0 9.93923e-017 -1.98785e-016 -1.59028e-015 -0.0160551 0.00299681 0.000857156 -2.48481e-016 0 3.18055e-015 9.93923e-017 -1.98785e-016 -1.59028e-015 -0.0125865 0.0031206 0.00282719 0 1.98785e-016 -0 9.93923e-017 -1.98785e-016 -1.59028e-015 9.93923e-017 -5.96354e-016 -1.59028e-015 -9.93923e-017 -5.96354e-016 -1.59028e-015 -0.865644 0.16582 7.03859 -88.0329 10.2057 -10.5567 0.0015593 -0.00248883 -0.000788628 7.87605e-005 4.10553e-005 1.24965e-005 -3.97569e-016 -7.95139e-016 3.18055e-015 -1.98785e-016 -3.97569e-016 3.18055e-015 -1.98785e-016 0 3.18055e-015 -3.97569e-016 -7.95139e-016 3.18055e-015 0.0129473 0.00231697 -8.70038e-005 9.93923e-017 -7.95139e-016 1.59028e-015 -3.97569e-016 -7.95139e-016 3.18055e-015 0.0163314 0.00303369 -0.000872333 3.97569e-016 7.95139e-016 -3.18055e-015 -3.97569e-016 -7.95139e-016 3.18055e-015 0.0145763 0.00367772 -0.00326275 9.93923e-017 -3.97569e-016 -0 -3.97569e-016 -7.95139e-016 3.18055e-015 -1.98785e-016 -3.97569e-016 3.18055e-015 -1.98785e-016 0 3.18055e-015 3.42485 1.36937 -0.0640303 0.000136572 0.69354 0.00145564 -3.42573 -2.06297 -0.0607933 -3.19502e-024 0 -1.48106e-024 -3.42498 1.36123 0.0639712 -6.769e-005 0.712612 -0.0012277 3.42582 -2.07388 0.0612819 2.55305e-023 0 -2.31416e-026 
35.5854 26.8362 19.3892 133.331 43.6931 1.18079e-005 -0.0150336 4.74598 -0.0645319 -0.0247995 9.49199 -0.1285 -0.0248077 9.49204 -0.128495 -2.73461e-006 10.3681 -3.8643e-006 -1.00173e-005 0.0997453 2.16656e-006 -31.0189 -2.75218 -11.3765 91.6319 15.805 -31.0306 0.0432995 -1.87982 -26.9653 -0.103787 -3.54092 -10.6844 1.76556e-031 3.18055e-015 -3.18055e-015 -9.31394e-006 1.47188e-005 7.64503e-006 1.49302e-005 -2.89068e-005 -8.08201e-006 1.76556e-031 3.18055e-015 -3.18055e-015 -0.0128291 0.00231499 8.22799e-005 1.39352e-006 -6.28525e-007 7.88648e-006 1.76556e-031 3.18055e-015 -3.18055e-015 -0.0160236 0.00299209 0.00086334 -2.90529e-006 1.29478e-005 5.68476e-006 1.76556e-031 3.18055e-015 -3.18055e-015 -0.0126135 0.00312026 0.00283962 1.18619e-005 -8.95502e-006 -7.30555e-006 1.76556e-031 3.18055e-015 -3.18055e-015 -9.31394e-006 1.47188e-005 7.64503e-006 1.49302e-005 -2.89068e-005 -8.08201e-006 29.7891 -2.59452 5.99889 -92.2663 11.0287 31.0798 -0.573033 -2.60213 26.8763 -0.0644406 -3.75899 10.6337 6.36111e-015 3.18055e-015 -3.18055e-015 3.18055e-015 3.18055e-015 -0 -3.18055e-015 3.18055e-015 -6.36111e-015 6.36111e-015 3.18055e-015 -3.18055e-015 0.0130004 0.00233459 -8.66807e-005 -6.36111e-015 6.36111e-015 -9.54166e-015 6.36111e-015 3.18055e-015 -3.18055e-015 0.0164418 0.00304894 -0.00088059 -1.76556e-031 3.18055e-015 3.18055e-015 6.36111e-015 3.18055e-015 -3.18055e-015 0.0147293 0.00371673 -0.00329066 3.18055e-015 -3.18055e-015 -9.54166e-015 6.36111e-015 3.18055e-015 -3.18055e-015 3.18055e-015 3.18055e-015 -0 -3.18055e-015 3.18055e-015 -6.36111e-015 -3.71349 -45.9182 -34.2946 -91.7493 66.7935 111.367 -6.15552 -9.0327 -5.34803 2.71078e-006 1.48506e-005 4.24327e-006 7.27169 -53.1472 34.6543 85.044 62.475 -88.2716 17.7469 -9.2575 7.88607 5.832e-007 -1.51584e-005 -8.52041e-006 
41.2527 3.2598 26.7314 -166.669 63.358 -1.23759e-005 -0.0226879 7.02051 -0.0932294 -0.0341735 14.0409 -0.185724 -0.0341708 14.041 -0.185725 3.69738e-007 15.0338 -9.27838e-007 1.95534e-006 0.144618 8.50901e-007 -43.8598 -4.09547 -11.0103 92.4236 16.1169 -49.657 -0.0627728 -3.39997 -39.0999 0.00949577 -4.90019 -14.9683 7.90041e-006 -7.00474e-006 -8.39719e-006 -7.90041e-006 7.00473e-006 8.39719e-006 7.90041e-006 -7.00474e-006 -8.39719e-006 7.90041e-006 -7.00474e-006 -8.39719e-006 -0.012804 0.00232425 9.13029e-005 3.18055e-015 0 -0 7.90041e-006 -7.00474e-006 -8.39719e-006 -0.0160426 0.00299767 0.000861185 -2.65412e-007 2.1201e-006 -8.00275e-007 7.90041e-006 -7.00474e-006 -8.39719e-006 -0.0125822 0.00311862 0.00282787 1.59028e-015 3.18055e-015 1.59028e-015 7.90041e-006 -7.00474e-006 -8.39719e-006 -7.90041e-006 7.00473e-006 8.39719e-006 7.90041e-006 -7.00474e-006 -8.39719e-006 42.4797 -3.94479 5.66576 -93.1553 10.8781 49.6932 -0.608986 -4.49873 38.9481 -0.234333 -5.21802 14.8878 4.77083e-015 9.54166e-015 -0 1.23589e-030 6.36111e-015 -1.11319e-014 6.36111e-015 9.54166e-015 -0 4.77083e-015 9.54166e-015 -0 0.0129592 0.00233322 -9.25551e-005 7.94503e-031 -9.54166e-015 4.77083e-015 4.77083e-015 9.54166e-015 -0 0.0162934 0.00302528 -0.000866458 -4.77083e-015 0 -6.36111e-015 4.77083e-015 9.54166e-015 -0 0.0145717 0.00368681 -0.00325819 7.95139e-015 -3.18055e-015 -1.59028e-015 4.77083e-015 9.54166e-015 -0 1.23589e-030 6.36111e-015 -1.11319e-014 6.36111e-015 9.54166e-015 -0 -32.0035 -54.8689 -67.2074 -127.465 33.4953 141.875 -6.98733 -10.2011 -8.0557 -2.21008e-006 -7.30049e-006 7.69969e-007 48.7227 -60.7036 79.8696 137.555 36.437 -127.115 24.8426 -13.6193 12.0692 3.78522e-006 6.76279e-006 2.82718e-006 
39.8509 9.30931 24.9375 179.997 58.9946 1.10873e-007 -0.0220192 6.82422 -0.0864598 -0.0339456 13.6485 -0.17211 -0.0339456 13.6486 -0.17211 3.46644e-008 13.997 4.76931e-007 -1.89204e-008 0.134637 -3.4162e-008 -38.5988 -4.03441 -11.4065 90.2628 16.1184 -45.0808 -0.41585 -4.165 -36.466 0.314092 -4.02096 -12.8592 1.21711e-006 -2.32157e-006 1.19282e-006 4.37599e-008 3.36342e-006 4.8246e-006 1.47735e-006 -4.31864e-006 -3.32806e-006 1.21711e-006 -2.32157e-006 1.19282e-006 -0.0128182 0.00233145 8.4829e-005 -1.1078e-006 -4.6277e-006 -5.86561e-006 1.21711e-006 -2.32157e-006 1.19282e-006 -0.0160465 0.00300694 0.000861073 7.95139e-016 9.54166e-015 3.97569e-016 1.21711e-006 -2.32157e-006 1.19282e-006 -0.01258 0.00311772 0.00282416 1.06428e-006 -2.42777e-007 1.04119e-006 1.21711e-006 -2.32157e-006 1.19282e-006 4.37599e-008 3.36342e-006 4.8246e-006 1.47735e-006 -4.31864e-006 -3.32806e-006 37.2754 -3.88906 6.04216 -91.0305 10.975 45.309 -0.234888 -5.16857 36.3066 -0.509106 -4.29291 12.7893 -3.97569e-016 0 3.97569e-016 3.97569e-016 9.54166e-015 -3.97569e-016 -1.19271e-015 0 -3.97569e-016 -3.97569e-016 0 3.97569e-016 0.0129492 0.0023104 -7.98122e-005 7.50186e-006 -1.69478e-006 -6.97563e-006 -3.97569e-016 0 3.97569e-016 0.0163405 0.00303269 -0.000875457 -7.74311e-006 -5.44872e-006 6.71737e-006 -3.97569e-016 0 3.97569e-016 0.0145826 0.00367752 -0.00325827 -3.97569e-016 0 -0 -3.97569e-016 0 3.97569e-016 3.97569e-016 9.54166e-015 -3.97569e-016 -1.19271e-015 0 -3.97569e-016 -24.7514 -54.5905 -59.4445 -124.123 41.0213 140.398 -7.01721 -10.1216 -7.48386 1.15596e-006 7.96881e-006 -5.50766e-007 38.4246 -61.8511 69.4761 130.955 42.9802 -124.322 23.463 -12.5563 11.4795 -5.01346e-006 5.11133e-007 1.18053e-006 
